<?xml version="1.0" encoding="utf-8"?>
<!-- Generator: Adobe Illustrator 26.0.2, SVG Export Plug-In . SVG Version: 6.00 Build 0)  -->
<svg version="1.1" id="Layer_1" xmlns="http://www.w3.org/2000/svg" xmlns:xlink="http://www.w3.org/1999/xlink" x="0px" y="0px"
	 viewBox="0 0 24 24" style="enable-background:new 0 0 24 24;" xml:space="preserve">
<style type="text/css">
	.st0{fill:#231F20;stroke:#231F20;stroke-width:2;stroke-linecap:round;stroke-linejoin:round;stroke-miterlimit:10;}
</style>
<rect x="1.4" y="16.8" transform="matrix(-1 -1.224647e-16 1.224647e-16 -1 8.3843 37.2196)" class="st0" width="5.5" height="3.5"/>
<rect x="15" y="16.6" width="7.9" height="1.4"/>
<rect x="15" y="19" width="7.9" height="1.4"/>
<rect x="10.4" y="16.6" transform="matrix(-1 -1.224647e-16 1.224647e-16 -1 23.009 34.5954)" width="2.2" height="1.4"/>
<rect x="10.4" y="19" transform="matrix(-1 -1.224647e-16 1.224647e-16 -1 23.009 39.3498)" width="2.2" height="1.4"/>
<rect y="12.9" width="24" height="1.3"/>
<rect y="22.7" width="24" height="1.3"/>
<rect x="1.4" y="4.2" transform="matrix(-1 -1.224647e-16 1.224647e-16 -1 8.3843 11.892)" class="st0" width="5.5" height="3.5"/>
<rect x="15" y="3.9" width="7.9" height="1.4"/>
<rect x="15" y="6.3" width="7.9" height="1.4"/>
<rect x="10.4" y="3.9" transform="matrix(-1 -1.224647e-16 1.224647e-16 -1 23.009 9.2677)" width="2.2" height="1.4"/>
<rect x="10.4" y="6.3" transform="matrix(-1 -1.224647e-16 1.224647e-16 -1 23.009 14.0222)" width="2.2" height="1.4"/>
<rect y="0.2" width="24" height="1.3"/>
<rect y="10" width="24" height="1.3"/>
</svg>
